<svg width="350" height="350" viewBox="0 0 350 350" fill="none" xmlns="http://www.w3.org/2000/svg">
<path d="M100 136C100 116.118 116.118 100 136 100H214C233.882 100 250 116.118 250 136V214C250 233.882 233.882 250 214 250H136C116.118 250 100 233.882 100 214V136Z" fill="#FF255A"/>
<path d="M206.25 123.125C206.25 126.922 203.172 130 199.375 130C195.578 130 192.5 126.922 192.5 123.125C192.5 119.328 195.578 116.25 199.375 116.25C203.172 116.25 206.25 119.328 206.25 123.125Z" fill="#F0F6FC"/>
<path d="M199.375 135.625C203.172 135.625 206.25 138.703 206.25 142.5V206.25C206.25 206.567 206.229 206.879 206.187 207.184C206.589 210.083 205.095 213.029 202.308 214.343C198.874 215.963 194.777 214.492 193.157 211.058L168.188 158.124L143.741 211.01C142.147 214.456 138.062 215.959 134.615 214.366C131.169 212.772 129.666 208.687 131.26 205.24L161.211 140.448C163.927 134.573 172.267 134.54 175.028 140.395L192.5 177.435V142.5C192.5 138.703 195.578 135.625 199.375 135.625Z" fill="#F0F6FC"/>
<path d="M168.125 203.75C171.922 203.75 175 200.672 175 196.875C175 193.078 171.922 190 168.125 190C164.328 190 161.25 193.078 161.25 196.875C161.25 200.672 164.328 203.75 168.125 203.75Z" fill="#F0F6FC"/>
</svg>
